<svg width="300" height="300" viewBox="0 0 300 300" fill="none" xmlns="http://www.w3.org/2000/svg">
<rect width="300" height="300" fill="#AC4003"/>
<path fill-rule="evenodd" clip-rule="evenodd" d="M147.824 210.351C180.924 210.351 207.757 185.43 207.757 154.687C207.757 123.945 180.924 99.0234 147.824 99.0234C114.724 99.0234 87.8906 123.945 87.8906 154.687C87.8906 185.43 114.724 210.351 147.824 210.351Z" fill="#ACE1FF" stroke="#ACE1FF"/>
<path fill-rule="evenodd" clip-rule="evenodd" d="M113.915 110.641C115.451 110.375 116.125 110.442 116.501 110.641C116.877 110.839 116.501 111.552 116.501 111.878C117.316 112.84 118.58 113.092 118.58 113.092H121.225L123.509 112.473C123.509 112.473 124.042 112.125 124.561 111.707C124.817 111.501 124.905 110.796 125.06 111.225C125.215 111.654 124.75 112.736 125.06 113.092C125.37 113.449 127.206 112.317 127.527 112.473C127.848 112.629 127.736 114.009 127.527 114.293C127.319 114.577 124.855 114.226 124.395 114.293C123.936 114.359 123.66 114.606 123.509 114.872C123.359 115.139 123.733 115.614 123.509 115.863C123.286 116.112 121.058 115.677 120.721 115.863C120.385 116.049 118.58 118.153 118.58 118.153C118.58 118.153 116.73 118.525 116.501 118.724C116.272 118.923 115.725 119.103 116.501 119.958C117.278 120.812 119.384 122.513 119.384 122.513C119.384 122.513 119.251 124.98 119.384 125.703C119.516 126.425 120.126 126.564 120.126 126.564C120.126 126.564 121.74 126.123 122.038 125.703C122.335 125.282 121.372 124.248 122.038 123.863C122.703 123.478 124.756 122.812 125.06 122.513C125.364 122.214 125.06 120.892 125.06 120.892C125.06 120.892 125.462 119.338 125.88 118.724C126.297 118.11 126.921 118.153 126.921 118.153C126.921 118.153 129.418 119.77 129.603 119.958C129.787 120.146 128.85 120.736 129.603 120.892C130.355 121.048 131.988 120.664 132.214 120.892C132.439 121.12 133.913 122.513 133.913 122.513L134.5 124.619C134.5 124.619 135.986 126.32 135.986 126.564C135.986 127.318 134.5 127.782 134.5 127.782C134.5 127.782 133.351 128.243 132.214 128.718C131.688 128.938 129.603 128.718 129.603 128.718H126.921C126.921 128.718 125.656 129.092 125.88 129.267C126.419 129.689 128.447 129.677 128.447 129.912C128.447 130.652 127.527 131.932 127.527 131.932L125.88 132.547L123.509 133.765C123.509 133.765 122.038 134.658 122.038 134.658C122.984 134.658 120.362 134.658 120.126 134.658C119.12 134.658 118.58 137.844 118.58 137.844L116.501 139.797L113.915 141.149L113.113 142.852V145.405C113.113 145.405 113.524 147.274 113.113 146.9C112.701 146.526 111.942 144.339 111.942 144.339V142.852L107.906 142.263C107.906 142.263 106.356 142.098 105.158 142.852C103.96 143.607 102.917 145.405 102.917 145.405C102.917 145.405 102.917 148.128 102.917 148.525C102.917 148.922 104.284 151.806 105.158 150.242C105.443 149.731 106.205 149.846 106.541 149.626C106.958 149.352 107.439 148.146 107.457 148.996C107.489 150.527 107.906 151.083 107.906 151.083V152.068C107.906 152.068 106.541 152.289 109.8 153.64C110.196 153.805 109.8 155.612 109.8 155.612C109.8 155.612 108.739 156.108 108.902 156.445C109.022 156.694 109.744 157.212 110.114 157.428C110.412 157.602 110.774 157.632 110.774 157.632C110.774 157.632 113.041 158.491 113.113 158.585C113.364 158.917 113.915 159.643 113.915 159.643V161.105V162.165L116.501 161.105L120.721 162.165L122.038 163.228C122.038 163.228 126.598 167.286 129.603 168.093C129.832 168.155 128.447 169.288 128.447 169.914C128.447 170.541 129.603 170.817 129.603 170.817L132.903 171.552L133.913 172.722H135.986L140.565 175.072V177.688L138.275 178.769L135.986 184.165L134.5 184.905H132.214L131.341 186.083L130.355 189.5L128.447 191.567C128.447 191.567 127.185 190.035 126.921 190.43C126.726 190.722 127.527 192.941 127.527 192.941L125.06 194.266L125.551 197.81L127.527 200.406C127.527 200.406 130.128 200.99 129.603 201.263C129.077 201.536 127.661 202.076 125.88 201.263C125.38 201.035 124.88 200.042 124.395 199.662C123.586 199.027 122.038 197.81 122.038 197.81L119.384 190.888L118.58 184.165L117.27 179.793L111.942 176.624L108.902 170.817V166.163L109.8 164.621L111.942 161.105V159.643L108.902 157.632L107.906 156.445V154.417L105.158 153.095L105.837 152.068L100.495 151.083L98.3629 146.9L96.9472 140.386L97.6309 132.547L100.495 124.619L105.158 118.724C105.158 118.724 112.38 110.906 113.915 110.641Z" fill="#8CCD47" stroke="#8CCD47"/>
<path fill-rule="evenodd" clip-rule="evenodd" d="M133.953 207.984C132.672 207.652 135.709 206.984 135.709 206.984C135.709 206.984 135.018 206.157 133.953 204.453C133.696 204.04 136.552 204.556 137.096 203.921C137.64 203.285 134.91 202.862 135.709 202.403C136.231 202.103 138.932 203.313 139.738 202.403C140.544 201.493 136.869 199.588 137.957 199.865C139.857 200.347 143.322 203.644 145.714 203.921C148.106 204.198 147.211 201.99 150.248 201.288C153.284 200.587 161.075 200.618 161.075 200.618L164.372 202.403H166.293V200.618L172.314 201.288L174.527 202.403V205.178C174.527 205.178 173.645 205.927 172.792 206.298C171.731 206.761 169.72 207.319 168.934 207.565C163.883 209.145 158.284 210.013 154.24 210.22C147.189 210.581 142.489 210.213 137.096 208.972C135.897 208.697 135.34 208.343 133.953 207.984Z" fill="#8CCD47" stroke="#8CCD47"/>
<path fill-rule="evenodd" clip-rule="evenodd" d="M172.632 138.379C169.599 138.102 168.569 138.574 165.888 139.093C165.101 139.246 163.723 138.804 162.669 139.093C160.927 139.571 159.858 141.88 159.858 141.88C159.858 141.88 160.369 143.242 159.858 143.883C158.943 145.031 157.006 145.457 157.006 145.457V147.159C157.006 147.159 154.084 148.679 153.891 149.999C153.752 150.946 156.341 151.692 156.341 151.692L154.748 153.838L155.601 155.784V157.146L157.006 159.404L160.714 161.849C160.714 161.849 161.981 163.35 163.261 163.588C164.012 163.729 164.776 162.607 164.776 162.607H167.058L170.593 161.132L176.224 164.806C176.224 164.806 174.152 166.027 174.152 167.37C174.152 168.894 176.224 170.542 176.224 170.542C176.224 170.542 178.058 172.436 177.68 174.09C177.022 176.976 174.152 179.623 174.152 179.623L176.224 184.088C176.224 184.088 174.545 189.325 175.332 190.766C176.119 192.208 179.871 190.766 179.871 190.766C179.871 190.766 183.386 188.171 186.201 184.883C187.55 183.308 188.199 181.04 188.199 181.04L192.153 177.976L192.916 170.542C192.916 170.542 198.972 163.287 200.458 158.694C200.888 157.363 196.748 158.694 196.748 158.694L188.199 142.639H186.201C186.201 142.639 182.705 140.002 180.737 140.002C179.973 140.002 180.737 142.639 180.737 142.639C180.737 142.639 177.405 141.713 176.224 141.05C174.329 139.985 173.305 138.441 172.632 138.379Z" fill="#8CCD47" stroke="#8CCD47"/>
<path fill-rule="evenodd" clip-rule="evenodd" d="M196.617 176.334C195.641 176.334 194.837 177.122 193.777 178.482C193.417 178.944 194.112 179.471 193.777 179.979C192.843 181.394 191.722 180.956 191.239 182.328C190.961 183.117 191.649 184.735 192.254 184.303C194.338 182.812 194.884 181.647 196.617 178.482C197.066 177.663 197.594 176.334 196.617 176.334Z" fill="#8CCD47" stroke="#8CCD47"/>
<path fill-rule="evenodd" clip-rule="evenodd" d="M112.929 149.254C112.929 149.254 113.497 150.96 114.442 151.242C115.162 151.457 116.259 150.846 116.259 150.248C116.259 149.49 115.461 148.833 114.442 148.529C113.796 148.336 112.929 149.254 112.929 149.254Z" fill="#8CCD47" stroke="#8CCD47"/>
<path fill-rule="evenodd" clip-rule="evenodd" d="M115.848 152.325C117.449 152.811 119.321 153.319 119.801 153.08C120.309 152.827 119.127 151.736 117.824 151.341C117.15 151.137 116.534 151.539 115.848 151.881C115.546 152.031 115.472 152.212 115.848 152.325Z" fill="#8CCD47" stroke="#8CCD47"/>
<path fill-rule="evenodd" clip-rule="evenodd" d="M121.721 152.528C122.212 152.472 122.918 152.895 122.918 153.216C122.918 153.506 122.331 153.681 121.721 153.751C121.332 153.796 120.92 153.665 120.92 153.446C120.92 153.053 121.213 152.586 121.721 152.528Z" fill="#8CCD47" stroke="#8CCD47"/>
<path fill-rule="evenodd" clip-rule="evenodd" d="M127.376 133.347C128.244 133.347 128.852 133.388 129.586 133.126C130.753 132.707 131.465 132.32 131.179 131.985C130.979 131.75 129.444 131.736 128.614 131.985C127.542 132.306 127.9 132.549 127.376 133.126C127.281 133.23 127.14 133.347 127.376 133.347Z" fill="#8CCD47" stroke="#8CCD47"/>
<path fill-rule="evenodd" clip-rule="evenodd" d="M134.962 129.333C134.022 129.264 132.49 130.311 133.013 130.718C133.576 131.155 136.675 131.348 137.135 131.021C137.649 130.656 136.083 129.415 134.962 129.333Z" fill="#8CCD47" stroke="#8CCD47"/>
<path fill-rule="evenodd" clip-rule="evenodd" d="M119.326 110.792C119.589 110.346 119.015 110.183 119.326 109.755C120.031 108.786 120.302 108.094 121.358 107.998C122.264 107.914 123.268 108.703 123.251 109.395C123.233 110.1 121.88 109.971 121.289 110.792C120.934 111.284 121.89 111.822 121.358 112.021C120.243 112.437 118.627 112.404 117.993 112.021C117.611 111.79 118.922 111.479 119.326 110.792Z" fill="#8CCD47" stroke="#8CCD47"/>
<path fill-rule="evenodd" clip-rule="evenodd" d="M122.93 116.91C123.205 116.556 124.283 115.841 124.703 115.727C124.923 115.668 124.155 116.179 124.211 116.565C124.259 116.898 124.986 117.008 124.91 117.164C124.841 117.307 124.235 117.3 123.92 117.164C123.74 117.086 124.095 116.78 123.92 116.735C123.6 116.653 122.813 117.06 122.93 116.91Z" fill="#8CCD47" stroke="#8CCD47"/>
<path fill-rule="evenodd" clip-rule="evenodd" d="M125.436 108.89C124.606 109.21 124.469 109.341 124.267 109.78C124.177 109.974 124.46 110.156 124.851 110.156C125.471 110.156 125.624 109.999 126.287 109.78C127.127 109.504 127.575 109.512 127.857 109.168C128.043 108.942 127.743 108.699 127.223 108.64C126.532 108.56 126.084 108.64 125.436 108.89Z" fill="#8CCD47" stroke="#8CCD47"/>
<path fill-rule="evenodd" clip-rule="evenodd" d="M126.984 111.219L130.112 111.547L131.473 112.211L129.758 114.11L132.031 113.717L132.901 114.11L129.758 116.532L131.31 118.209L132.031 118.815L133.387 118.553L133.827 117.658L132.901 116.339L133.827 115.298L135.502 116.863L136.903 115.868L135.776 114.574L134.477 113.717L135.502 112.477L132.572 110.674L130.112 109.538L127.904 109.868L126.581 110.884L126.984 111.219Z" fill="#8CCD47" stroke="#8CCD47"/>
<path fill-rule="evenodd" clip-rule="evenodd" d="M130.964 108.073C131.333 107.956 131.87 107.973 132.275 108.073C133.047 108.262 132.801 108.361 133.316 108.651C133.763 108.903 134.406 109.013 134.199 109.155C134.039 109.265 133.259 109.239 132.581 109.155C131.86 109.066 132.113 108.902 131.402 108.809C130.793 108.729 130.016 108.935 129.941 108.809C129.797 108.567 130.166 108.324 130.964 108.073Z" fill="#8CCD47" stroke="#8CCD47"/>
<path fill-rule="evenodd" clip-rule="evenodd" d="M124.492 106.69C123.84 107.138 123.33 107.734 123.72 107.921C124.147 108.125 125.204 107.859 126.126 107.473C126.672 107.244 126.381 107.079 126.655 106.69C126.913 106.323 127.413 106.14 127.191 105.959C126.964 105.774 126.184 105.791 125.756 105.959C125.467 106.073 126.024 106.368 125.756 106.522C125.392 106.733 124.859 106.439 124.492 106.69Z" fill="#8CCD47" stroke="#8CCD47"/>
<path fill-rule="evenodd" clip-rule="evenodd" d="M133.08 105.686C132.61 106.145 133.159 106.586 133.984 106.731C134.646 106.847 135.14 106.514 136.055 106.208C137.825 105.618 137.465 105.479 139.354 104.939C141.397 104.354 141.946 104.541 143.918 103.958C144.668 103.736 145.095 103.583 144.799 103.33C144.38 102.972 143.729 102.734 142.488 102.734C140.799 102.734 140.493 102.936 138.939 103.33C137.512 103.692 137.693 103.777 136.526 104.247C134.764 104.955 133.881 104.903 133.08 105.686Z" fill="#8CCD47" stroke="#8CCD47"/>
<path fill-rule="evenodd" clip-rule="evenodd" d="M152.239 103.353C149.615 103.45 148.757 104.575 146.896 105.111C145.41 105.539 142.89 105.286 141.209 106.079C140.404 106.458 142.546 106.681 143.06 107.681C143.471 108.48 143.31 108.736 143.06 109.675C142.666 111.157 142.452 111.118 141.772 112.523C141.049 114.019 140.407 113.957 140.255 115.477C140.126 116.775 140.557 116.918 141.209 118.159C141.801 119.286 141.809 119.835 142.744 120.213C143.435 120.494 143.853 119.222 144.461 119.478C145.06 119.729 144.523 121.071 145.158 121.226C146.032 121.439 146.896 121.117 147.478 120.213C148.056 119.314 147.025 118.754 147.478 117.619C148.12 116.01 148.324 115.74 149.667 114.724C150.487 114.104 151.182 115.043 151.803 114.347C152.611 113.439 151.493 112.098 152.524 111.517C154.357 110.483 157.234 111.849 157.532 111.118C157.798 110.462 154.35 110.069 153.653 108.742C153.283 108.038 155.641 107.717 155.398 107.056C155.076 106.176 153.449 106.745 152.524 105.661C151.869 104.894 153.175 103.319 152.239 103.353Z" fill="#8CCD47" stroke="#8CCD47"/>
<path fill-rule="evenodd" clip-rule="evenodd" d="M151.143 115.821C152.758 115.54 154.668 115.905 156.38 116.352C156.92 116.493 156.013 116.675 155.647 116.997C155.032 117.539 155.3 117.71 154.416 118.082C154.009 118.252 153.607 118.217 153.065 118.082C151.971 117.808 151.571 117.768 151.143 117.265C150.61 116.638 150.14 115.996 151.143 115.821Z" fill="#8CCD47" stroke="#8CCD47"/>
<path fill-rule="evenodd" clip-rule="evenodd" d="M159.779 122.608C158.874 122.911 158.41 122.819 157.97 123.215C157.777 123.389 158.594 123.5 158.512 123.748C158.386 124.128 157.759 124.197 157.553 124.472C157.488 124.559 157.915 124.35 157.97 124.472C158.123 124.815 157.675 125.171 157.97 125.401C158.27 125.636 158.919 125.683 159.159 125.401C159.514 124.985 158.951 124.317 159.159 124.005C159.261 123.852 159.67 124.611 159.779 124.472C159.98 124.216 159.481 123.606 159.779 123.215C159.961 122.977 160.307 123.082 160.74 123.215C161.588 123.476 161.823 123.484 162.34 124.005C162.623 124.289 162.533 124.482 162.34 124.825C162.139 125.18 161.881 125.074 161.552 125.401C161.301 125.651 161.18 125.676 161.18 125.979C161.18 126.487 161.098 126.784 161.552 127.023C162.089 127.306 163.163 127.023 163.163 127.023C163.163 127.023 163.706 126.438 164.374 125.979C164.886 125.627 165.644 125.697 165.525 125.401C165.34 124.943 164.511 125.054 163.767 124.472C162.918 123.81 162.559 123.589 162.34 122.913C162.257 122.657 163.321 122.802 163.163 122.608C162.741 122.089 161.458 121.865 161.18 121.487C161.046 121.305 162.423 121.642 162.34 121.487C162.203 121.234 161.477 120.67 160.74 120.67C160.197 120.67 159.609 121.2 159.779 121.487C160.009 121.874 161.539 121.742 161.539 122.02C161.539 122.302 160.659 122.313 159.779 122.608Z" fill="#8CCD47" stroke="#8CCD47"/>
<path fill-rule="evenodd" clip-rule="evenodd" d="M170.501 106.403C170.897 106.173 169.954 105.545 170.501 105.228C170.968 104.957 172.53 105.467 172.53 105.228C172.53 104.847 171.582 104.203 170.501 103.988C169.916 103.871 169.959 104.417 169.198 104.565C168.476 104.705 167.535 104.42 167.535 104.565C167.535 104.751 168.715 104.815 169.198 105.228C169.546 105.526 168.874 105.694 169.198 105.987C169.525 106.282 170.246 106.552 170.501 106.403Z" fill="#8CCD47" stroke="#8CCD47"/>
<path fill-rule="evenodd" clip-rule="evenodd" d="M173.883 107.049C173.65 107.284 175.401 107.497 175.66 108.101C175.845 108.533 174.399 108.725 174.771 109.122C175.868 110.289 176.612 110.348 178.598 111.23C178.987 111.403 179.522 111.488 179.522 111.23C179.522 110.433 179.255 110.095 178.598 109.122C177.845 108.005 177.961 107.602 176.702 107.049C175.603 106.566 174.171 106.758 173.883 107.049Z" fill="#8CCD47" stroke="#8CCD47"/>
<path fill-rule="evenodd" clip-rule="evenodd" d="M182.676 108.134C181.743 107.554 180.843 108.881 180.843 109.692C180.843 110.549 182.373 110.572 182.676 111.469C182.832 111.928 182.221 111.939 181.76 112.403C181.304 112.861 181.137 112.75 180.843 113.313C180.381 114.198 180.969 114.842 180.247 115.3C179.069 116.046 178.271 116.132 177.042 115.719C176.404 115.505 176.248 114.481 176.513 114.046C176.757 113.644 178.399 114.306 178.06 114.046C177.019 113.246 175.998 112.648 173.752 111.927C171.987 111.359 171.845 111.321 170.038 111.469C168.927 111.56 168.452 111.569 167.916 112.403C167.391 113.221 168.287 113.715 167.916 114.774C167.444 116.12 166.231 117.213 166.231 117.213V118.667L167.325 119.907C167.325 119.907 167.087 120.6 167.325 120.6C168.084 120.6 169.319 119.907 169.319 119.907C169.319 119.907 171.434 120.625 171.983 121.427C172.222 121.776 170.895 122.209 170.895 122.209C170.895 122.209 170.721 122.818 170.895 122.72C172.15 122.014 173.752 120.6 173.752 120.6C173.752 120.6 172.456 119.808 171.983 118.667C171.571 117.671 171.983 116.325 171.983 116.325V115.3C171.983 115.3 172.694 116.207 173.223 117.213C173.579 117.89 173.146 118.463 173.752 118.667C175.313 119.19 176.671 118.045 177.558 118.667C178.051 119.012 176.825 119.554 176.513 120.6C176.034 122.202 177.118 123.368 175.975 123.962C173.881 125.049 170.038 123.962 170.038 123.962C170.038 123.962 170.419 122.449 170.038 122.72C167.636 124.43 164.472 127.923 164.472 127.923C164.472 127.923 162.305 128.477 162.482 129.131C162.751 130.128 165.364 131.225 165.364 131.225C165.364 131.225 165.12 132.168 164.472 132.51C162.758 133.414 160.639 133.717 160.639 133.717C160.639 133.717 159.742 135.151 159.901 136.35C160.024 137.274 161.203 137.963 161.203 137.963C161.203 137.963 163.043 138.524 164.472 137.963C165.832 137.429 166.781 135.772 166.781 135.772C166.781 135.772 167.035 135.105 167.325 134.456C167.603 133.834 167.916 133.231 167.916 133.231C167.916 133.231 169.564 132.391 171.289 132.038C172.483 131.794 173.576 131.612 173.752 132.038C173.923 132.451 171.983 133.717 171.983 133.717C171.983 133.717 171.699 135.772 171.983 135.772C172.319 135.772 173.223 133.717 173.223 133.717C173.223 133.717 175.321 134 176.513 134.954C176.966 135.316 176.513 136.35 176.513 136.35C176.513 136.35 174.479 136.806 174.755 136.905C175.252 137.084 178.06 136.905 178.06 136.905C178.06 136.905 178.035 135.794 177.558 134.954C176.992 133.957 175.975 133.231 175.975 133.231V132.038L179.203 133.231C179.203 133.231 179.203 133.843 179.203 134.456C179.203 135.114 179.203 135.772 179.203 135.772H180.247C180.247 135.772 180.439 136.445 180.843 136.905C181.195 137.306 181.76 137.494 181.76 137.494L182.676 136.35C182.676 136.35 181.57 135.294 181.76 134.954C181.96 134.596 183.456 134.954 183.456 134.954C183.456 134.954 183.881 134.118 184.014 133.231C184.16 132.253 184.014 131.225 184.014 131.225H185.065C185.065 131.225 186.267 131.573 186.807 131.225C187.138 131.011 186.501 130.216 186.807 130.1C187.272 129.924 188.349 130.64 188.349 130.64L190.387 132.51C190.387 132.51 191.142 133.292 190.938 133.717C190.674 134.265 189.451 134.456 189.451 134.456L186.807 133.717L184.488 134.456C184.488 134.456 184.488 135.403 184.488 136.35C184.488 137.156 184.488 137.963 184.488 137.963L185.558 138.481L186.807 137.963C186.807 137.963 187.578 137.963 188.349 137.963C188.9 137.963 189.207 137.539 189.451 137.963C190.226 139.307 190.387 141.5 190.387 141.5C190.387 141.5 189.102 142.752 189.451 143.577C189.995 144.858 192.174 145.711 192.174 145.711L193.078 148.564C193.078 148.564 195.346 150.139 196.523 152.315C197.449 154.028 197.285 156.341 197.285 156.341C197.285 156.341 201.095 155.141 203.13 152.854C204.018 151.856 203.13 149.77 203.13 149.77L202.563 147.805C202.563 147.805 201.302 148.276 200.464 147.805C199.436 147.228 198.833 145.711 198.833 145.711L197.285 143.134L201.389 144.776L204.796 147.295L206.538 148.564C206.538 148.564 206.231 149.525 206.538 150.188C206.871 150.907 207.817 151.328 207.817 151.328V156.341C207.817 156.341 207.601 157.682 207.817 158.882C207.917 159.436 208.315 160.219 208.45 159.848C209.004 158.329 209.195 155.101 209.195 155.101C209.195 155.101 209.195 153.214 209.195 151.328C209.195 147.784 210.604 150.265 209.195 144.241C207.787 138.217 208.57 139.09 205.349 132.51C202.128 125.93 197.285 119.907 197.285 119.907C197.285 119.907 189.964 112.661 182.676 108.134Z" fill="#8CCD47" stroke="#8CCD47"/>
<path fill-rule="evenodd" clip-rule="evenodd" d="M182.518 139.293C182.518 139.14 183.397 139.293 184.275 139.293C184.728 139.293 185.182 139.183 185.182 139.293C185.182 139.613 184.894 140.153 184.275 140.153C183.562 140.153 182.518 139.57 182.518 139.293Z" fill="#8CCD47" stroke="#8CCD47"/>
<path fill-rule="evenodd" clip-rule="evenodd" d="M194.892 131.621C194.202 130.692 194.21 129.639 193.602 129.639C193.042 129.639 192.309 130.797 192.557 131.621C192.954 132.946 193.897 132.565 194.892 133.935C195.632 134.956 195.306 135.371 196.026 136.404C196.611 137.243 196.81 137.679 197.503 137.679C198.047 137.679 198.501 137.147 198.501 136.404C198.501 135.275 198.192 134.91 197.503 133.935C196.955 133.161 196.716 133.517 196.026 132.906C195.411 132.36 195.414 132.325 194.892 131.621Z" fill="#ACE1FF" stroke="#ACE1FF"/>
<rect x="150.586" y="41.6016" width="94.9219" height="109.57" fill="#AC4003"/>
<path fill-rule="evenodd" clip-rule="evenodd" d="M148.828 212.695C181.17 212.695 207.422 186.413 207.422 154.034H206.475H205.527H202.821H184.823H177.651H166.826H159.654H152.482H148.828V152.273V145.092V129.783V122.603V118.132V116.371V112.713V110.952V107.294V100.114V97.54V96.4562V95.5078C116.487 95.5078 90.2344 121.79 90.2344 154.169C90.2344 186.413 116.487 212.695 148.828 212.695Z" stroke="#E5C575" stroke-width="10"/>
<path fill-rule="evenodd" clip-rule="evenodd" d="M164.062 78.5667V136.523H221.139C222.852 118.052 218.766 103.195 208.88 91.9516C198.862 80.5744 183.967 76.1574 164.062 78.5667Z" fill="#E5C575" stroke="#E5C575" stroke-width="10"/>
</svg>
