<?xml version="1.0" encoding="UTF-8"?>
<svg width="427px" height="466px" viewBox="0 0 427 466" version="1.1" xmlns="http://www.w3.org/2000/svg" xmlns:xlink="http://www.w3.org/1999/xlink">
    <!-- Generator: Sketch 54.1 (76490) - https://sketchapp.com -->
    <title>Group 2</title>
    <desc>Created with Sketch.</desc>
    <g id="Page-2" stroke="none" stroke-width="1" fill="none" fill-rule="evenodd">
        <g id="Group-2">
            <g id="fairfinder" fill="#FFFFFF">
                <rect id="Rectangle" x="0" y="0" width="426.66" height="465.44"></rect>
            </g>
            <g id="Group" transform="translate(88.000000, 96.000000)">
                <path d="M182.437707,188.678851 L174.143395,195.54813 C169.23656,199.612149 168.596074,206.83301 172.714012,211.676525 L222.221096,269.910192 C226.33857,274.753707 233.654762,275.385631 238.562061,271.321149 L246.856373,264.45187 C251.763671,260.387851 252.403693,253.166527 248.286219,248.323475 L198.779135,190.089808 C194.661197,185.246293 187.345005,184.614369 182.437707,188.678851 Z" id="Path" fill="#219653" fill-rule="nonzero"></path>
                <path d="M152,203.781348 C152,203.781348 167.477724,196.001013 175.18252,189.64721 C183.949136,182.417879 194.17755,169 194.17755,169 L199,195.693519 L176.801436,214 L152,203.781348 Z" id="Path" fill="#219653" fill-rule="nonzero"></path>
                <path d="M197.584265,168.849864 C231.782027,120.103425 219.62038,53.1195168 170.420862,19.2369361 C121.220878,-14.6458778 53.6135236,-2.59630224 19.4157618,46.1502761 C-14.7820932,94.8967146 -2.62039943,161.880623 46.5796308,195.763204 C95.7796145,229.645785 163.386504,217.596302 197.584265,168.849864 Z" id="Path" stroke="#219653"></path>
                <path d="M192.8369,163.069538 C224.828407,117.723913 213.451282,55.4130947 167.425683,23.8946806 C121.400084,-7.62405912 58.1546485,3.5850048 26.1631412,48.9301651 C-5.82845954,94.2757905 5.54875877,156.586609 51.5743579,188.105488 C97.599957,219.623902 160.845392,208.415164 192.8369,163.069538 Z" id="Path" stroke="#219653"></path>
                <path d="M114.695382,130.307482 C119.06377,136.196715 135,143.923325 135,143.923325 C132.1028,145.522357 125.695056,142.067542 121.95771,143.537726 C117.614005,145.246255 115.297549,146.52482 111.243518,148.762899 C107.189953,151.000505 99.3692358,153.248967 95.8926888,153.7889 C92.4161419,154.328833 80.3891057,153.038469 77.3466032,152.994104 C74.3036349,152.949739 63.4348268,151.019856 59.6695378,152.408862 C55.9047146,153.797868 40.8575301,169 40.8575301,169 C40.8575301,169 38.4511914,157.743531 41.7004704,149.916392 C44.2996143,143.654303 50.3734422,135.474602 56.4509958,130.05073 C62.5285494,124.626859 81.932944,117.362779 90.0461288,117.021545 C96.0156371,116.770457 105.985619,118.565829 114.695382,130.307482 Z" id="Path" fill="#219653" fill-rule="nonzero"></path>
                <path d="M135,143.923325 C135,143.923325 119.06377,136.196715 114.695382,130.307482 C105.985619,118.565829 96.0156371,116.770457 90.0461288,117.021545 C81.932944,117.362779 62.5285494,124.626859 56.4509958,130.05073 C50.3734422,135.474602 44.2996143,143.654303 41.7004704,149.916392 C38.4511914,157.743531 40.8575301,169 40.8575301,169 C40.8575301,169 55.9047146,153.797868 59.6695378,152.408862 C63.4348268,151.019856 74.3036349,152.949739 77.3466032,152.994104 C80.3891057,153.038469 92.4161419,154.328833 95.8926888,153.7889 C99.3692358,153.248967 107.189953,151.000505 111.243518,148.762899 C115.297549,146.52482 117.614005,145.246255 121.95771,143.537726 C125.695056,142.068014 132.1028,145.522357 135,143.923325 Z" id="Path" stroke="#219653"></path>
                <path d="M135,143.998037 C133.977625,144.072837 127.572227,141.98695 125.993628,141.676508 C124.415029,141.366454 113.224155,138.427143 109.650486,138.188402 C104.643077,137.854319 88,138.066318 88,138.066318" id="Path" stroke="#FFFFFF" stroke-width="0.25"></path>
                <path d="M126.388935,121.58083 C131.487573,126.940965 136.274819,144 136.274819,144 C138.420711,141.443143 136.146066,134.521243 138.318662,131.116019 C140.843661,127.157759 142.559421,125.113967 145.561762,121.537095 C148.564103,117.960223 152.279357,110.684209 153.469611,107.366456 C154.659866,104.048703 155.605966,91.9980405 156.128609,89.0005411 C156.651253,86.0035119 156.739473,74.9742753 158.835771,71.5271979 C160.932069,68.0796504 179,56.0534418 179,56.0534418 C179,56.0534418 168.147034,51.6479548 159.682683,53.4204015 C152.911202,54.8382648 143.566083,59.3218167 136.987732,64.3094977 C130.408905,69.2967085 119.498715,87.0442189 117.643711,94.9532156 C116.278924,100.772804 116.223607,110.89395 126.388935,121.58083 Z" id="Path" fill="#219653" fill-rule="nonzero"></path>
                <path d="M136.274819,144 C136.274819,144 131.487573,126.940965 126.388935,121.58083 C116.223607,110.89395 116.278924,100.772804 117.643711,94.9532156 C119.498715,87.0442189 130.408905,69.2967085 136.987732,64.3094977 C143.566083,59.3218167 152.911202,54.8382648 159.682683,53.4204015 C168.147034,51.6479548 179,56.0534418 179,56.0534418 C179,56.0534418 160.932069,68.0796504 158.835771,71.5271979 C156.739473,74.9742753 156.651253,86.0035119 156.128609,89.0005411 C155.605966,91.9980405 154.659866,104.048703 153.469611,107.366456 C152.279357,110.684209 148.564103,117.960223 145.561762,121.537095 C142.559421,125.113967 140.843661,127.157759 138.318662,131.116019 C136.146543,134.521243 138.420711,141.443143 136.274819,144 Z" id="Path" stroke="#219653"></path>
                <path d="M136.966165,144 C137.262165,143.022216 135.844165,136.338757 135.755665,134.735878 C135.667165,133.132535 134.093165,121.608882 134.487665,118.081527 C135.040665,113.139239 138.575665,97 138.575665,97" id="Path" stroke="#FFFFFF" stroke-width="0.25"></path>
            </g>
        </g>
    </g>
</svg>