<?xml version="1.0" encoding="UTF-8"?>
<svg width="138px" height="153px" viewBox="0 0 138 153" version="1.1" xmlns="http://www.w3.org/2000/svg" xmlns:xlink="http://www.w3.org/1999/xlink">
    <!-- Generator: Sketch 54.1 (76490) - https://sketchapp.com -->
    <title>michelle_logo</title>
    <desc>Created with Sketch.</desc>
    <g id="Page-1" stroke="none" stroke-width="1" fill="none" fill-rule="evenodd">
        <g id="michelle_logo" transform="translate(1.960938, 4.000000)" stroke="#9F72C4" stroke-width="7">
            <path d="M0,145.4375 C17.2884412,136.11325 31.8322309,116.444448 42.21875,100.3125 C47.698535,91.8015056 53.3754967,83.3177973 57.5273438,74.0859375 C61.2410194,65.8283758 64.0134054,57.0736238 65.6679688,48.171875 C70.4774381,22.2963542 53.0834232,-5.16721071 23.1679688,1.4375 C-3.53534838,7.33303755 -1.21688247,46.6611249 8.57421875,63.7148438 C17.2316486,78.7939825 25.5165205,94.2032558 35.9179687,108.136719 C45.0236853,120.334459 58.9799319,133.79113 69.2833173,144.995558" id="Path-5"></path>
            <path d="M64.8478863,144.995558 C82.1363274,135.671308 96.6801172,116.002505 107.066636,99.8705576 C112.546421,91.3595632 118.223383,82.8758549 122.37523,73.6439951 C126.088906,65.3864334 128.861292,56.6316814 130.515855,47.7299326 C135.325324,21.8544118 117.931309,-5.60915314 88.015855,0.995557575 C61.3125379,6.89109512 63.6310038,46.2191825 73.422105,63.2729013 C82.0795348,78.3520401 90.3644067,93.7613134 100.765855,107.694776 C109.871572,119.892516 122.081381,133.734668 133.867188,144.404861" id="Path-5" transform="translate(99.357537, 72.497779) scale(-1, 1) translate(-99.357537, -72.497779) "></path>
        </g>
    </g>
</svg>